<?xml version="1.0" encoding="UTF-8"?>
<!DOCTYPE svg PUBLIC "-//W3C//DTD SVG 1.1//EN" "http://www.w3.org/Graphics/SVG/1.1/DTD/svg11.dtd">
<svg xmlns="http://www.w3.org/2000/svg" version="1.1" width="400px" height="400px" style="shape-rendering:geometricPrecision; text-rendering:geometricPrecision; image-rendering:optimizeQuality; fill-rule:evenodd; clip-rule:evenodd" xmlns:xlink="http://www.w3.org/1999/xlink">
<g><path style="opacity:0.984" fill="#fe8b00" d="M 337.5,198.5 C 337.664,201.187 337.497,203.854 337,206.5C 333.39,184.507 329.89,162.507 326.5,140.5C 241.833,140.5 157.167,140.5 72.5,140.5C 72.3215,143.216 71.8215,145.883 71,148.5C 70.7216,147.584 70.2216,146.918 69.5,146.5C 70.3403,139.125 71.5069,131.791 73,124.5C 75.2563,119.243 79.0896,115.743 84.5,114C 95.8333,113.667 107.167,113.333 118.5,113C 120.41,78.7264 137.077,54.3931 168.5,40C 206.775,27.1076 238.941,35.941 265,66.5C 275.029,80.5619 280.529,96.2286 281.5,113.5C 292.505,113.333 303.505,113.5 314.5,114C 321.975,116.478 326.142,121.644 327,129.5C 330.828,152.462 334.328,175.462 337.5,198.5 Z M 192.5,55.5 C 223.822,54.569 245.322,68.569 257,97.5C 258.546,102.73 259.38,108.063 259.5,113.5C 219.5,113.5 179.5,113.5 139.5,113.5C 141.396,88.4391 153.729,70.6058 176.5,60C 181.874,58.1604 187.207,56.6604 192.5,55.5 Z"/></g>
<g><path style="opacity:0.997" fill="#ff8601" d="M 337.5,198.5 C 344.695,241.006 351.695,283.673 358.5,326.5C 357.927,329.659 357.76,332.992 358,336.5C 356.882,330.95 355.716,325.45 354.5,320C 251.167,319.333 147.833,319.333 44.5,320C 43.8095,321.067 43.3095,322.234 43,323.5C 42.7679,322.263 42.2679,321.263 41.5,320.5C 50.7412,262.477 60.0746,204.477 69.5,146.5C 70.2216,146.918 70.7216,147.584 71,148.5C 71.8215,145.883 72.3215,143.216 72.5,140.5C 157.167,140.5 241.833,140.5 326.5,140.5C 329.89,162.507 333.39,184.507 337,206.5C 337.497,203.854 337.664,201.187 337.5,198.5 Z"/></g>
<g><path style="opacity:1" fill="#fffefe" d="M 183.5,154.5 C 225.265,152.988 253.265,171.655 267.5,210.5C 270.889,209.309 274.222,207.809 277.5,206C 287.933,201.373 293.099,204.539 293,215.5C 289.415,227.341 283.748,238.007 276,247.5C 275.51,248.793 275.343,250.127 275.5,251.5C 283.977,249.156 287.477,252.156 286,260.5C 266.357,297.508 235.357,316.175 193,316.5C 157.683,314.004 133.35,296.338 120,263.5C 117.441,256.033 115.774,248.366 115,240.5C 110.612,234.391 107.279,227.724 105,220.5C 104.333,217.167 104.333,213.833 105,210.5C 105.833,209.667 106.667,208.833 107.5,208C 111.871,207.828 116.204,207.328 120.5,206.5C 128.482,184.018 143.482,168.185 165.5,159C 171.479,156.839 177.479,155.339 183.5,154.5 Z"/></g>
<g><path style="opacity:0.981" fill="#fe8200" d="M 358.5,326.5 C 359.274,331.476 359.94,336.476 360.5,341.5C 360.357,350.279 356.024,355.779 347.5,358C 248.833,358.667 150.167,358.667 51.5,358C 45.0747,356.573 40.9081,352.74 39,346.5C 38.8459,337.752 39.6792,329.086 41.5,320.5C 42.2679,321.263 42.7679,322.263 43,323.5C 43.3095,322.234 43.8095,321.067 44.5,320C 147.833,319.333 251.167,319.333 354.5,320C 355.716,325.45 356.882,330.95 358,336.5C 357.76,332.992 357.927,329.659 358.5,326.5 Z"/></g>
</svg>
